{"title":"Richard Pryor.Live in Concert.DVDRip.XviD-Atilla82","uid":5158292,"size":734606396,"categoryP":"video","categoryS":"movies","magnet":"?xt=urn:btih:98d7bb1814d72630a7ac0ed0af0a2eb6a2e26d9f&amp;dn=Richard+Pryor.Live+in+Concert.DVDRip.XviD-Atilla82&amp;tr=udp%3A%2F%2Ftracker.openbittorrent.com%3A80&amp;tr=udp%3A%2F%2Fopen.demonii.com%3A1337&amp;tr=udp%3A%2F%2Ftracker.coppersurfer.tk%3A6969&amp;tr=udp%3A%2F%2Fexodus.desync.com%3A6969","seeders":19,"leechers":2,"uploader":"Atilla83","files":1,"time":1257982972,"description":"\n\nRichard Pryor: Live in Concert was the first of Richard Pryor's filmed concert performances to be released theatrically. It was produced and distributed independently.\n\n&quot;Probably the greatest of all recorded-performance films. Pryor had characters and voices bursting out of him .... Watching this mysteriously original physical comedian you can't account for his gift and everything he does seems to be for the first time.&quot; Pauline Kael, from her review of &quot;Richard Pryor Live in Concert&quot;. An audio version was released in 1978 titled Wanted: Live in Concert. The film and its copyright are owned by Gary Biller.\n\nJ.Mark Travis was the Producer of this Movie.\n\n\nGeneral\nComplete name                    : Richard Pryor.Live in Concert.DVDRip.XviD-Atilla82.avi\nFormat                           : AVI\nFormat/Info                      : Audio Video Interleave\nFile size                        : 701 MiB\nDuration                         : 1h 15mn\nOverall bit rate                 : 1 301 Kbps\nWriting application              : MEncoder UNKNOWN-4.2.4\nWriting library                  : MPlayer\n\nVideo\nID                               : 0\nFormat                           : MPEG-4 Visual\nFormat profile                   : Advanced Simple@L5\nFormat settings, BVOP            : Yes\nFormat settings, QPel            : No\nFormat settings, GMC             : No warppoints\nFormat settings, Matrix          : Default (H.263)\nCodec ID                         : XVID\nCodec ID/Hint                    : XviD\nDuration                         : 1h 15mn\nBit rate                         : 1 160 Kbps\nWidth                            : 624 pixels\nHeight                           : 352 pixels\nDisplay aspect ratio             : 16/9\nFrame rate                       : 25.000 fps\nResolution                       : 24 bits\nColorimetry                      : 4:2:0\nScan type                        : Progressive\nBits/(Pixel*Frame)               : 0.211\nStream size                      : 625 MiB (89%)\nWriting library                  : XviD 1.2.1 (UTC 2008-12-04)\n\nAudio\nID                               : 1\nFormat                           : MPEG Audio\nFormat version                   : Version 1\nFormat profile                   : Layer 3\nCodec ID                         : 55\nCodec ID/Hint                    : MP3\nDuration                         : 1h 15mn\nBit rate mode                    : Constant\nBit rate                         : 128 Kbps\nChannel(s)                       : 2 channels\nSampling rate                    : 48.0 KHz\nResolution                       : 16 bits\nVideo delay                      : 40ms\nStream size                      : 68.9 MiB (10%)\nAlignment                        : Aligned on interleaves\nInterleave, duration             : 24 ms (0.60 video frame)\nInterleave, preload duration     : 504 ms\n\n","torrent":{"xt":"urn:btih:98d7bb1814d72630a7ac0ed0af0a2eb6a2e26d9f","amp;dn":"Richard+Pryor.Live+in+Concert.DVDRip.XviD-Atilla82","amp;tr":["udp%3A%2F%2Ftracker.openbittorrent.com%3A80","udp%3A%2F%2Fopen.demonii.com%3A1337","udp%3A%2F%2Ftracker.coppersurfer.tk%3A6969","udp%3A%2F%2Fexodus.desync.com%3A6969"],"infoHash":"98d7bb1814d72630a7ac0ed0af0a2eb6a2e26d9f","infoHashBuffer":{"type":"Buffer","data":[152,215,187,24,20,215,38,48,167,172,14,208,175,10,46,182,162,226,109,159]},"announce":[],"urlList":[]}}